<svg width="26" height="26" viewBox="0 0 26 26" fill="none" xmlns="http://www.w3.org/2000/svg">
<circle opacity="0.32" cx="12.568" cy="12.568" r="12.568" fill="#B8EB5E"/>
<path d="M12.5019 2.38086C15.1856 2.38086 17.7594 3.44697 19.6571 5.34466C21.5548 7.24235 22.6209 9.81617 22.6209 12.4999C22.6209 15.1836 21.5548 17.7575 19.6571 19.6552C17.7594 21.5528 15.1856 22.619 12.5019 22.619C9.81812 22.619 7.2443 21.5528 5.34661 19.6552C3.44892 17.7575 2.38281 15.1836 2.38281 12.4999C2.38281 9.81617 3.44892 7.24235 5.34661 5.34466C7.2443 3.44697 9.81812 2.38086 12.5019 2.38086ZM11.2413 14.4963L8.99344 12.2469C8.91286 12.1663 8.81719 12.1024 8.7119 12.0588C8.60661 12.0152 8.49376 11.9927 8.37979 11.9927C8.26583 11.9927 8.15298 12.0152 8.04769 12.0588C7.9424 12.1024 7.84673 12.1663 7.76615 12.2469C7.6034 12.4097 7.51196 12.6304 7.51196 12.8606C7.51196 13.0907 7.6034 13.3115 7.76615 13.4742L10.6284 16.3365C10.7087 16.4175 10.8043 16.4817 10.9097 16.5256C11.015 16.5695 11.1279 16.5921 11.242 16.5921C11.3561 16.5921 11.4691 16.5695 11.5744 16.5256C11.6797 16.4817 11.7753 16.4175 11.8557 16.3365L17.7826 10.4082C17.8642 10.3279 17.9292 10.2323 17.9737 10.1268C18.0182 10.0213 18.0414 9.90806 18.042 9.79356C18.0425 9.67907 18.0203 9.5656 17.9768 9.45971C17.9333 9.35382 17.8692 9.25759 17.7883 9.17658C17.7074 9.09558 17.6112 9.03139 17.5054 8.98773C17.3995 8.94406 17.2861 8.92179 17.1716 8.92219C17.0571 8.92258 16.9438 8.94565 16.8383 8.99004C16.7328 9.03444 16.6371 9.09929 16.5567 9.18086L11.2413 14.4963Z" fill="#B8EB5E"/>
</svg>
