<svg width="182" height="74" viewBox="0 0 182 74" fill="none" xmlns="http://www.w3.org/2000/svg">
<g clip-path="url(#clip0_1836_3284)">
<path d="M27.4422 15.0429L28.2833 17.6117C29.1254 20.1839 30.2859 22.6418 31.7379 24.9287L35.8018 31.3292L37.9456 17.3332L39.4197 31.3292L41.7878 27.6005V24.8893H43.5097C44.3197 23.6137 45.0032 22.2627 45.5506 20.8554C45.6562 20.5838 45.7619 20.3124 45.8677 20.0411C46.4659 18.5138 47.1031 17.0022 47.6588 15.4594C48.2715 13.7578 48.0896 12.0918 47.3129 10.7767C46.1545 8.81852 43.58 8.25983 43.2564 8.19095C43.1481 8.16652 43.0421 8.14431 42.8881 8.12321C41.0468 7.85996 40.1451 8.81185 38.5872 9.01731C38.023 9.09072 37.2003 9.08952 36.1483 8.70379L36.1468 8.7031C35.6035 8.40773 34.0857 7.67668 32.1381 7.95439C31.8457 7.99547 28.9811 8.4442 27.7424 10.8011C27.1074 12.0129 26.9434 13.4901 27.4244 14.9863C27.4299 15.0051 27.4366 15.0229 27.4422 15.0429ZM40.2457 16.9438C40.6569 17.0112 40.9885 17.3412 41.0563 17.7504C41.1682 18.4263 40.5901 19.0025 39.9097 18.8923C39.4978 18.8257 39.1655 18.495 39.0986 18.085C38.988 17.4078 39.5668 16.8326 40.2457 16.9438ZM37.7863 14.5011C38.4666 14.3911 39.0444 14.9671 38.9327 15.6428C38.8651 16.052 38.5336 16.382 38.1225 16.4496C37.4433 16.5611 36.8642 15.9856 36.975 15.3082C37.042 14.8982 37.3743 14.5676 37.7863 14.5011ZM35.8686 16.9438C36.5475 16.8326 37.1263 17.4078 37.0157 18.085C36.9488 18.495 36.6165 18.8257 36.2046 18.8923C35.5242 19.0025 34.9461 18.4263 35.058 17.7504C35.1258 17.3412 35.4574 17.0112 35.8686 16.9438ZM44.8109 24.8893C45.2029 23.585 45.8746 22.381 46.7798 21.3604C47.9582 20.0319 49.1356 18.7025 50.2992 17.362C51.7008 15.7471 53.6537 15.0773 55.4816 15.4028C56.7739 15.6338 57.9814 16.6234 58.3206 16.9033C58.3251 16.9078 58.3306 16.9111 58.3351 16.9155C59.1676 17.612 59.6665 18.626 59.749 19.7045C59.8695 21.284 59.6754 21.4072 60.2635 23.0155C60.5625 23.8341 63.4518 24.3873 64.7284 24.8893H57.7972V31.5535H50.3695V24.8893L44.8109 24.8893ZM57.7972 46.096H64.7284L60.5034 50.1823C59.6497 51.4018 58.8786 52.929 58.3775 54.855C58.0528 55.2882 57.4747 55.9446 56.5719 56.49C56.3164 56.6443 55.2328 57.2808 54.0052 57.3608C52.3436 57.4674 50.6696 56.7654 49.4946 55.3415C48.505 54.1433 47.5339 52.9305 46.5653 51.7161C45.3206 50.1554 44.4685 48.3213 44.0792 46.3666L44.0253 46.096H50.3695V39.1763H57.7972V46.096ZM26.805 51.0708C25.7159 52.3015 24.6602 53.561 23.5398 54.7595C22.3021 56.0834 20.732 56.6899 19.202 56.6066C16.9221 56.4833 15.2404 54.4651 15.0306 54.2108C14.9592 54.1264 14.89 54.0409 14.7985 53.9153C13.7194 52.4092 14.1546 51.1741 13.62 49.7035C13.427 49.1715 13.0498 48.4462 12.2229 47.6932C12.2206 47.6921 12.2196 47.691 12.2184 47.691C11.7051 47.3455 10.3547 46.3392 9.70752 44.4921C9.61156 44.2133 8.69313 41.4743 10.2276 39.2985C11.0177 38.1789 12.2597 37.3547 13.8153 37.0915C14.4175 36.9896 14.6913 36.9066 16.2343 36.6904C16.7743 36.6148 17.2787 36.5406 17.742 36.47C19.2402 36.2417 20.7545 36.1434 22.2698 36.1755C23.2218 36.1957 24.1739 36.2159 25.1259 36.236C28.201 36.7093 31.276 37.1825 34.3511 37.6557L29.8318 46.6125C29.474 47.3216 29.0275 48.106 28.4705 48.9276C27.9073 49.7584 27.3371 50.4707 26.805 51.0708ZM10.5205 31.6323C10.0607 30.8883 9.87399 30.0867 9.83507 29.3347C9.75971 27.8382 10.3595 26.3947 11.4134 25.3262C12.1267 24.6044 12.9241 23.6373 13.6233 22.398C14.5189 20.8101 14.9474 19.3137 15.1617 18.188C15.3117 17.3945 15.7016 16.6606 16.2899 16.1017C16.7661 15.6494 17.4195 15.1875 18.2746 14.8992C18.634 14.7784 19.8146 14.4733 21.2627 14.7724C22.5066 15.0302 23.4693 15.7565 24.294 16.6951C24.8079 17.2807 25.3229 17.8653 25.8385 18.4492C28.0238 20.9243 29.7983 23.7304 31.0916 26.7635L33.9877 33.5556L26.0062 34.6834C23.2491 35.0729 20.4498 35.0643 17.6954 34.6562C16.7611 34.5178 15.8268 34.3798 14.8924 34.2419C13.3225 34.0087 11.536 33.2767 10.5205 31.6323ZM46.5139 56.6621C46.9714 58.0472 47.0819 59.9243 46.015 61.587C45.13 62.9643 43.4227 64.0283 41.6996 63.9817C39.5704 63.9239 38.162 62.1601 36.0752 62.4278C34.37 62.6466 34.3488 62.8754 32.8859 63.4952C31.8848 63.9183 30.7499 63.9439 29.7455 63.5274C29.74 63.5241 29.7344 63.5218 29.7288 63.5196C29.3237 63.3497 27.8853 62.7366 27.0851 61.7014C25.9535 60.2341 25.6545 58.2004 26.4513 56.2189C26.4604 56.1963 26.4695 56.1736 26.4786 56.151C28.3013 51.6144 30.8101 47.3818 33.9435 43.6206L37.6108 39.2185L43.4116 48.98C44.192 50.2932 44.8312 51.6846 45.3186 53.1312C45.7171 54.3085 46.1233 55.4825 46.5139 56.6621Z" fill="black"/>
<mask id="mask0_1836_3284" style="mask-type:luminance" maskUnits="userSpaceOnUse" x="9" y="7" width="56" height="57">
<path d="M27.4422 15.0429L28.2833 17.6117C29.1254 20.1839 30.2859 22.6418 31.7379 24.9287L35.8018 31.3292L37.9456 17.3332L39.4197 31.3292L41.7878 27.6005V24.8893H43.5097C44.3197 23.6137 45.0032 22.2627 45.5506 20.8554C45.6562 20.5838 45.7619 20.3124 45.8677 20.0411C46.4659 18.5138 47.1031 17.0022 47.6588 15.4594C48.2715 13.7578 48.0896 12.0918 47.3129 10.7767C46.1545 8.81852 43.58 8.25983 43.2564 8.19095C43.1481 8.16652 43.0421 8.14431 42.8881 8.12321C41.0468 7.85996 40.1451 8.81185 38.5872 9.01731C38.023 9.09072 37.2003 9.08952 36.1483 8.70379L36.1468 8.7031C35.6035 8.40773 34.0857 7.67668 32.1381 7.95439C31.8457 7.99547 28.9811 8.4442 27.7424 10.8011C27.1074 12.0129 26.9434 13.4901 27.4244 14.9863C27.4299 15.0051 27.4366 15.0229 27.4422 15.0429ZM40.2457 16.9438C40.6569 17.0112 40.9885 17.3412 41.0563 17.7504C41.1682 18.4263 40.5901 19.0025 39.9097 18.8923C39.4978 18.8257 39.1655 18.495 39.0986 18.085C38.988 17.4078 39.5668 16.8326 40.2457 16.9438ZM37.7863 14.5011C38.4666 14.3911 39.0444 14.9671 38.9327 15.6428C38.8651 16.052 38.5336 16.382 38.1225 16.4496C37.4433 16.5611 36.8642 15.9856 36.975 15.3082C37.042 14.8982 37.3743 14.5676 37.7863 14.5011ZM35.8686 16.9438C36.5475 16.8326 37.1263 17.4078 37.0157 18.085C36.9488 18.495 36.6165 18.8257 36.2046 18.8923C35.5242 19.0025 34.9461 18.4263 35.058 17.7504C35.1258 17.3412 35.4574 17.0112 35.8686 16.9438ZM44.8109 24.8893C45.2029 23.585 45.8746 22.381 46.7798 21.3604C47.9582 20.0319 49.1356 18.7025 50.2992 17.362C51.7008 15.7471 53.6537 15.0773 55.4816 15.4028C56.7739 15.6338 57.9814 16.6234 58.3206 16.9033C58.3251 16.9078 58.3306 16.9111 58.3351 16.9155C59.1676 17.612 59.6665 18.626 59.749 19.7045C59.8695 21.284 59.6754 21.4072 60.2635 23.0155C60.5625 23.8341 63.4518 24.3873 64.7284 24.8893H57.7972V31.5535H50.3695V24.8893L44.8109 24.8893ZM57.7972 46.096H64.7284L60.5034 50.1823C59.6497 51.4018 58.8786 52.929 58.3775 54.855C58.0528 55.2882 57.4747 55.9446 56.5719 56.49C56.3164 56.6443 55.2328 57.2808 54.0052 57.3608C52.3436 57.4674 50.6696 56.7654 49.4946 55.3415C48.505 54.1433 47.5339 52.9305 46.5653 51.7161C45.3206 50.1554 44.4685 48.3213 44.0792 46.3666L44.0253 46.096H50.3695V39.1763H57.7972V46.096ZM26.805 51.0708C25.7159 52.3015 24.6602 53.561 23.5398 54.7595C22.3021 56.0834 20.732 56.6899 19.202 56.6066C16.9221 56.4833 15.2404 54.4651 15.0306 54.2108C14.9592 54.1264 14.89 54.0409 14.7985 53.9153C13.7194 52.4092 14.1546 51.1741 13.62 49.7035C13.427 49.1715 13.0498 48.4462 12.2229 47.6932C12.2206 47.6921 12.2196 47.691 12.2184 47.691C11.7051 47.3455 10.3547 46.3392 9.70752 44.4921C9.61156 44.2133 8.69313 41.4743 10.2276 39.2985C11.0177 38.1789 12.2597 37.3547 13.8153 37.0915C14.4175 36.9896 14.6913 36.9066 16.2343 36.6904C16.7743 36.6148 17.2787 36.5406 17.742 36.47C19.2402 36.2417 20.7545 36.1434 22.2698 36.1755C23.2218 36.1957 24.1739 36.2159 25.1259 36.236C28.201 36.7093 31.276 37.1825 34.3511 37.6557L29.8318 46.6125C29.474 47.3216 29.0275 48.106 28.4705 48.9276C27.9073 49.7584 27.3371 50.4707 26.805 51.0708ZM10.5205 31.6323C10.0607 30.8883 9.87399 30.0867 9.83507 29.3347C9.75971 27.8382 10.3595 26.3947 11.4134 25.3262C12.1267 24.6044 12.9241 23.6373 13.6233 22.398C14.5189 20.8101 14.9474 19.3137 15.1617 18.188C15.3117 17.3945 15.7016 16.6606 16.2899 16.1017C16.7661 15.6494 17.4195 15.1875 18.2746 14.8992C18.634 14.7784 19.8146 14.4733 21.2627 14.7724C22.5066 15.0302 23.4693 15.7565 24.294 16.6951C24.8079 17.2807 25.3229 17.8653 25.8385 18.4492C28.0238 20.9243 29.7983 23.7304 31.0916 26.7635L33.9877 33.5556L26.0062 34.6834C23.2491 35.0729 20.4498 35.0643 17.6954 34.6562C16.7611 34.5178 15.8268 34.3798 14.8924 34.2419C13.3225 34.0087 11.536 33.2767 10.5205 31.6323ZM46.5139 56.6621C46.9714 58.0472 47.0819 59.9243 46.015 61.587C45.13 62.9643 43.4227 64.0283 41.6996 63.9817C39.5704 63.9239 38.162 62.1601 36.0752 62.4278C34.37 62.6466 34.3488 62.8754 32.8859 63.4952C31.8848 63.9183 30.7499 63.9439 29.7455 63.5274C29.74 63.5241 29.7344 63.5218 29.7288 63.5196C29.3237 63.3497 27.8853 62.7366 27.0851 61.7014C25.9535 60.2341 25.6545 58.2004 26.4513 56.2189C26.4604 56.1963 26.4695 56.1736 26.4786 56.151C28.3013 51.6144 30.8101 47.3818 33.9435 43.6206L37.6108 39.2185L43.4116 48.98C44.192 50.2932 44.8312 51.6846 45.3186 53.1312C45.7171 54.3085 46.1233 55.4825 46.5139 56.6621Z" fill="white"/>
</mask>
<g mask="url(#mask0_1836_3284)">
<path d="M36.7148 73.0844C56.9918 73.0844 73.4296 56.7239 73.4296 36.5422C73.4296 16.3605 56.9918 0 36.7148 0C16.4378 0 0 16.3605 0 36.5422C0 56.7239 16.4378 73.0844 36.7148 73.0844Z" fill="url(#paint0_radial_1836_3284)"/>
</g>
<path d="M97.1769 48.2148V66.0897H91.943V59.1696H81.1675V66.0897H75.9336V48.2148H81.1675V54.8796H91.943V48.2148H97.1769Z" fill="#F7F5E9"/>
<path d="M110.057 63.1018C112.314 63.1018 113.674 62.5656 115.085 61.493L117.651 64.1742C115.624 65.9618 113.007 66.6768 109.775 66.6768C103.745 66.6768 100.23 63.7658 100.23 59.0161C100.23 54.2664 103.694 51.3555 109.39 51.3555C114.521 51.3555 118.164 53.909 118.164 58.9139C118.164 59.4758 118.138 59.8077 118.036 60.0886H105.054C105.464 62.2335 107.183 63.1018 110.057 63.1018ZM105.182 57.3818L113.495 57.3307C112.956 55.6709 111.596 54.8794 109.441 54.8794C107.26 54.8794 105.746 55.6709 105.182 57.3818Z" fill="#F7F5E9"/>
<path d="M137.121 58.1478V63.4081C137.121 64.4296 137.301 65.2723 137.737 66.0893H132.606C132.324 65.6553 132.119 65.119 132.119 64.6338V64.6083C131.041 65.7318 129.065 66.6 126.551 66.6C123.549 66.6 119.727 65.4254 119.727 61.7994C119.727 58.1733 123.549 56.9987 126.551 56.9987C129.065 56.9987 131.041 57.8669 132.119 59.016V58.0967C132.119 55.9518 130.528 54.9303 127.423 54.9303C125.73 54.9303 124.062 55.1601 122.318 56.0284L121.163 52.8364C123.087 51.9171 126.012 51.3809 128.475 51.3809C133.889 51.3809 137.121 53.7812 137.121 58.1478ZM132.221 61.6462C131.246 60.2927 129.45 59.9352 127.988 59.9352C126.551 59.9352 124.627 60.2927 124.627 61.7994C124.627 63.306 126.551 63.6635 127.988 63.6635C129.45 63.6635 131.246 63.306 132.221 61.927V61.6462Z" fill="#F7F5E9"/>
<path d="M140.637 66.0897V47.1934H145.717V66.0897H140.637Z" fill="#F7F5E9"/>
<path d="M161.215 65.2465C159.932 66.1147 157.931 66.6255 156.212 66.6255C152.979 66.6255 150.542 64.8635 150.542 61.4417V55.492H148.027V51.9425H150.542V48.6484H155.596V51.9425H161.061V55.492H155.596V60.599C155.596 61.8758 156.545 62.6164 157.905 62.6164C158.752 62.6164 159.547 62.3355 160.368 61.9525L161.215 65.2465Z" fill="#F7F5E9"/>
<path d="M180.763 57.765V66.0897H175.708V58.097C175.708 56.2585 174.656 55.186 172.732 55.186C171.065 55.186 169.628 55.9776 168.55 57.714V66.0897H163.496V47.1934H168.55V54.19C169.756 52.4281 171.86 51.4323 174.4 51.4323C178.531 51.4323 180.763 54.0624 180.763 57.765Z" fill="#F7F5E9"/>
<path d="M67.8945 26.4226C67.8945 24.9862 69.1057 24.0371 70.8325 24.0371C72.5335 24.0371 73.7448 24.9862 73.7448 26.4226C73.7448 27.8591 72.5335 28.8082 70.8325 28.8082C69.1057 28.8082 67.8945 27.8591 67.8945 26.4226ZM73.4097 44.4551H68.3068V30.2446H73.4097V44.4551Z" fill="#F7F5E9"/>
<path d="M95.4949 37.349C95.4949 42.0431 92.4022 44.9929 87.918 44.9929C85.315 44.9929 83.3047 43.9669 82.0419 42.3766V44.4543H76.9648V25.4727H82.0419V32.3214C83.3047 30.7311 85.315 29.7307 87.918 29.7307C92.4022 29.7307 95.4949 32.6549 95.4949 37.349ZM90.6756 37.349C90.6756 34.9891 89.1807 33.604 86.5005 33.604C84.7738 33.604 83.2016 34.1683 82.0677 35.6304V39.0676C83.2016 40.5297 84.7738 41.094 86.5005 41.094C89.1807 41.094 90.6756 39.7345 90.6756 37.349Z" fill="#F7F5E9"/>
<path d="M97.8945 26.4226C97.8945 24.9862 99.1057 24.0371 100.833 24.0371C102.533 24.0371 103.745 24.9862 103.745 26.4226C103.745 27.8591 102.533 28.8082 100.833 28.8082C99.1057 28.8082 97.8945 27.8591 97.8945 26.4226ZM103.41 44.4551H98.3068V30.2446H103.41V44.4551Z" fill="#F7F5E9"/>
<path d="M123.048 39.9916C123.048 42.7875 120.368 45.0448 114.801 45.0448C110.987 45.0448 107.791 43.8905 105.781 42.4028L107.998 39.6581C109.544 40.7867 111.941 41.6076 114.956 41.6076C116.966 41.6076 118.306 41.2998 118.306 40.4533C118.306 39.6325 117.095 39.3246 114.441 39.1707C110.317 38.8886 106.348 37.7599 106.348 34.5279C106.348 31.6294 109.312 29.6543 114.621 29.6543C117.714 29.6543 120.549 30.4751 122.43 31.6038L120.265 34.4766C118.822 33.6045 116.889 33.0659 114.492 33.0659C112.92 33.0659 111.09 33.2967 111.09 34.1689C111.09 35.0153 112.611 35.1692 115.033 35.2975C119.569 35.554 123.048 36.8622 123.048 39.9916Z" fill="#F7F5E9"/>
<path d="M133.975 45.0448C128.279 45.0448 124.723 42.0693 124.723 37.3496C124.723 32.6041 128.279 29.6543 133.975 29.6543C138.279 29.6543 140.933 31.5268 142.093 33.7328L137.738 35.477C136.99 34.0406 135.624 33.5276 134.026 33.5276C131.423 33.5276 129.594 34.8358 129.594 37.3496C129.594 39.8377 131.423 41.1715 134.026 41.1715C135.598 41.1715 137.042 40.6329 137.841 39.1451L142.196 40.915C141.011 43.1723 138.304 45.0448 133.975 45.0448Z" fill="#F7F5E9"/>
<path d="M161.602 30.2441V44.4547H156.525V42.1974C155.314 43.9674 153.201 44.9677 150.649 44.9677C146.5 44.9677 144.258 42.3257 144.258 38.6063V30.2441H149.335V38.2729C149.335 40.1197 150.392 41.1971 152.324 41.1971C154.025 41.1971 155.443 40.4019 156.525 38.6576V30.2441H161.602Z" fill="#F7F5E9"/>
<path d="M181.295 39.9916C181.295 42.7875 178.614 45.0448 173.047 45.0448C169.233 45.0448 166.037 43.8905 164.027 42.4028L166.244 39.6581C167.79 40.7867 170.187 41.6076 173.202 41.6076C175.212 41.6076 176.552 41.2998 176.552 40.4533C176.552 39.6325 175.341 39.3246 172.687 39.1707C168.563 38.8886 164.594 37.7599 164.594 34.5279C164.594 31.6294 167.558 29.6543 172.867 29.6543C175.96 29.6543 178.795 30.4751 180.676 31.6038L178.511 34.4766C177.068 33.6045 175.135 33.0659 172.738 33.0659C171.166 33.0659 169.336 33.2967 169.336 34.1689C169.336 35.0153 170.857 35.1692 173.279 35.2975C177.815 35.554 181.295 36.8622 181.295 39.9916Z" fill="#F7F5E9"/>
<path d="M64.7042 26.5547V44.4296H59.4704V37.5094H48.6948V44.4296H43.4609V26.5547H48.6948V33.2195H59.4704V26.5547H64.7042Z" fill="#F7F5E9"/>
</g>
<defs>
<radialGradient id="paint0_radial_1836_3284" cx="0" cy="0" r="1" gradientUnits="userSpaceOnUse" gradientTransform="translate(36.7148 36.5422) scale(36.7148 36.5422)">
<stop stop-color="#64060A"/>
<stop offset="0.03217" stop-color="#78100A"/>
<stop offset="0.09045" stop-color="#98200B"/>
<stop offset="0.15646" stop-color="#B32D0C"/>
<stop offset="0.23101" stop-color="#C9380C"/>
<stop offset="0.31809" stop-color="#DA400D"/>
<stop offset="0.42582" stop-color="#E6460D"/>
<stop offset="0.57692" stop-color="#ED4A0D"/>
<stop offset="0.99634" stop-color="#EF4B0E"/>
</radialGradient>
<clipPath id="clip0_1836_3284">
<rect width="181.295" height="73.0844" fill="white"/>
</clipPath>
</defs>
</svg>
