<svg width="11" height="12" viewBox="0 0 11 12" fill="none" xmlns="http://www.w3.org/2000/svg">
<path id="Vector" d="M6.24772 7.15776L7.64016 7.09399L7.64571 7.05171C7.20628 6.85349 6.76062 6.67051 6.27822 6.58318L6.28515 6.54644C6.5104 6.42584 6.73497 6.30247 6.96162 6.18464C7.60066 5.85195 8.24039 5.52042 8.88082 5.19004C9.10261 5.07568 9.33133 4.97379 9.59055 5.03201C9.75712 5.06911 9.91178 5.14725 10.0405 5.25934C10.1691 5.37144 10.2677 5.51392 10.3273 5.67383C10.41 5.85935 10.4498 6.06112 10.4438 6.26414C10.4378 6.46717 10.3861 6.66623 10.2927 6.84655C10.2226 6.98635 10.1345 7.11637 10.0307 7.23331C9.82274 7.46411 9.78323 7.71293 9.84007 8.01651C9.90175 8.34574 9.88928 8.68605 9.72779 8.99656C9.50876 9.41797 8.94111 9.75204 8.4802 9.54273C8.28529 9.44162 8.1122 9.30314 7.97077 9.13518C7.40451 8.51139 6.85211 7.86958 6.29485 7.23539C6.2778 7.21035 6.26207 7.18444 6.24772 7.15776ZM2.82587 6.97825L4.15386 6.53258C4.0894 6.49446 4.05336 6.46951 4.01524 6.4508C3.88355 6.38634 3.74839 6.32812 3.61809 6.26089C2.90974 5.89285 2.20208 5.52204 1.49373 5.15192C1.4141 5.10704 1.33001 5.07057 1.24283 5.0431C0.840826 4.93082 0.436749 5.1942 0.230204 5.50263C-0.116347 6.01899 -0.0629804 6.65041 0.332088 7.12311C0.456846 7.27282 0.620419 7.40658 0.62735 7.62214C0.631983 7.77284 0.622705 7.92365 0.599629 8.07265C0.51715 8.59803 0.643984 9.04993 1.064 9.38955C1.38838 9.65431 1.86523 9.69382 2.1806 9.42282C2.30359 9.31364 2.42066 9.19796 2.5313 9.07627C2.79399 8.79487 3.05598 8.51208 3.31173 8.22444C3.62432 7.87304 3.93068 7.5161 4.26544 7.13142C3.76156 7.18687 3.30065 7.12588 2.84112 7.05449L2.82587 6.97825ZM3.95285 4.17534L4.80468 5.30163C4.81023 5.23232 4.81507 5.19143 4.81507 5.15192C4.81507 3.99375 4.80953 2.83488 4.80953 1.67601C4.80806 1.51395 4.75661 1.3563 4.66221 1.22456C4.56781 1.09282 4.43506 0.993429 4.28208 0.939937C3.84958 0.783989 3.45036 0.870628 3.09618 1.15757C2.88063 1.33431 2.74963 1.57343 2.65329 1.82849C2.55695 2.08356 2.40031 2.23465 2.13208 2.28178C1.85517 2.33348 1.59799 2.46086 1.38907 2.64982C0.918453 3.05528 0.953803 3.83295 1.4868 4.16217C1.67394 4.27792 1.86731 4.38396 2.06138 4.48862C2.62649 4.79359 3.19252 5.09624 3.75948 5.39659C3.93622 5.49015 4.11643 5.5761 4.33129 5.68353C4.1795 5.16578 4.04019 4.68824 3.90018 4.21069L3.95285 4.17534ZM4.88231 7.66511C4.8501 7.72615 4.81277 7.78435 4.77072 7.83908C4.42417 8.22306 4.06791 8.60149 3.72275 8.98824C3.48155 9.25855 3.2452 9.53371 3.02133 9.81997C2.95047 9.91151 2.90187 10.0183 2.87938 10.1318C2.85688 10.2454 2.86111 10.3626 2.89171 10.4743C2.92556 10.6286 2.99038 10.7744 3.08225 10.9029C3.17411 11.0315 3.29111 11.14 3.42616 11.222C3.56121 11.304 3.7115 11.3577 3.86791 11.3798C4.02433 11.402 4.18362 11.3922 4.33614 11.351C4.55058 11.2851 4.75829 11.199 4.95647 11.0939C5.0217 11.056 5.09499 11.0342 5.17031 11.0303C5.24562 11.0263 5.3208 11.0402 5.38966 11.071C5.61138 11.1818 5.84013 11.2779 6.07444 11.3587C6.60467 11.5181 7.28114 11.1791 7.49115 10.6656C7.6166 10.3585 7.62977 10.0549 7.41144 9.77977C7.27698 9.61134 7.1342 9.45054 6.98934 9.28974C6.54298 8.7884 6.09755 8.28821 5.65304 7.78918C5.60937 7.73997 5.56432 7.69284 5.53383 7.66026L5.3051 9.04647H5.23579C5.13506 8.60149 5.03502 8.15629 4.93568 7.71086L4.88231 7.66511ZM6.03078 5.48738C6.19504 5.55669 6.36208 5.61422 6.53674 5.5463C6.7821 5.45204 7.05588 5.40074 7.20143 5.14014C7.22471 5.11157 7.25505 5.08959 7.28945 5.07637C7.67482 4.8726 8.06157 4.6716 8.44624 4.46575C8.62367 4.3701 8.79903 4.2696 8.97022 4.16286C9.55659 3.79829 9.45956 3.0837 9.13796 2.71358C8.95769 2.5148 8.72007 2.37699 8.45802 2.31921C8.10107 2.22772 7.78571 2.0988 7.69561 1.68779C7.68347 1.65816 7.66838 1.62984 7.65056 1.60324C7.42322 1.10559 7.03924 0.854685 6.48476 0.878943C6.05504 0.894885 5.59412 1.20678 5.61076 1.76542C5.6267 2.30743 5.61076 2.85082 5.61076 3.39352C5.61558 3.44758 5.60561 3.50193 5.58192 3.55076C5.55824 3.5996 5.52173 3.64108 5.4763 3.67076C5.1138 3.93691 5.04241 4.41584 5.29193 4.80606C5.31095 4.83588 5.31836 4.87164 5.31273 4.90656C5.24965 5.19281 5.21916 5.49293 5.10479 5.75839C4.96202 6.0987 5.07845 6.38218 5.19628 6.68021C5.20663 6.696 5.22071 6.709 5.23726 6.71807C5.25382 6.72714 5.27236 6.73199 5.29124 6.7322C5.31896 6.7322 5.3557 6.68922 5.36609 6.65734C5.4075 6.53585 5.44267 6.41231 5.47144 6.28722C5.53729 5.9878 5.59759 5.68769 5.66551 5.36124C5.79166 5.40144 5.91572 5.43887 6.03078 5.48877V5.48738ZM5.93305 4.9329C5.80649 4.81404 5.69938 4.67605 5.61561 4.52397C5.48531 4.31258 5.60106 4.13791 5.75423 4.00276C5.94091 3.83543 6.14018 3.68273 6.3503 3.546C6.61021 3.37758 6.8722 3.20777 7.18549 3.13777C7.30401 3.11074 7.33728 3.14539 7.34559 3.24658C7.39141 3.80343 7.25231 4.35985 6.94983 4.82963C6.83894 5.00776 6.58249 5.1339 6.30802 5.13251C6.22485 5.08746 6.05642 5.03756 5.93028 4.93151L5.93305 4.9329Z" fill="#FF493B"/>
</svg>
