<svg width="85" height="85" viewBox="0 0 85 85" fill="none" xmlns="http://www.w3.org/2000/svg">
<g id="Group 481761">
<circle id="Ellipse 737" opacity="0.32" cx="42.2283" cy="42.2283" r="42.2283" fill="#EC4A0E"/>
<path id="Subtract" fill-rule="evenodd" clip-rule="evenodd" d="M66.8458 18.1224C60.4752 11.7518 51.8348 8.17285 42.8254 8.17285C33.816 8.17285 25.1757 11.7518 18.805 18.1224C12.4344 24.493 8.85547 33.1334 8.85547 42.1428C8.85547 51.1522 12.4344 59.7926 18.805 66.1632C25.1757 72.5338 33.816 76.1128 42.8254 76.1128C51.8348 76.1128 60.4752 72.5338 66.8458 66.1632C73.2165 59.7926 76.7954 51.1522 76.7954 42.1428C76.7954 33.1334 73.2165 24.493 66.8458 18.1224ZM35.4327 31.9011C34.4564 30.9248 32.8735 30.9248 31.8972 31.9011C30.9209 32.8774 30.9209 34.4603 31.8972 35.4366L39.8791 43.4185L31.8972 51.4005C30.9209 52.3768 30.9209 53.9597 31.8972 54.936C32.8735 55.9123 34.4564 55.9123 35.4327 54.936L43.4147 46.9541L51.3965 54.9359C52.3728 55.9122 53.9557 55.9122 54.932 54.9359C55.9083 53.9596 55.9083 52.3767 54.932 51.4004L46.9502 43.4185L54.932 35.4367C55.9083 34.4604 55.9083 32.8775 54.932 31.9012C53.9557 30.9249 52.3728 30.9249 51.3965 31.9012L43.4147 39.883L35.4327 31.9011Z" fill="#EC4A0E"/>
</g>
</svg>
